# xmcd
#
# Track frame offsets:
#	150
#	10674
#	27034
#	47350
#	58745
#	72603
#	87844
#	106706
#	119630
#	143128
#	163937
#	178708
#	181312
#	196836
#	205050
#	217192
#	235886
#	261396
#	279454
#	295137
#	299736
#	321466
#	339412
#
# Disc length: 4771 seconds
#
# Revision: 0
# Processed by: cddbd v1.5.1PL0 Copyright (c) Steve Scherf et al.
# Submitted via: dBpowerAMP V4.0
#
DISCID=6812a117
DTITLE=compilation funk - gangsta soul 15
DYEAR=2004
DGENRE=soul\funk
TTITLE0=intro
TTITLE1=johnny guitar watson  your sexy thing
TTITLE2=uncle louie  i like funky music
TTITLE3=sweet talk  shadow dancing
TTITLE4=james ingram   music has the power
TTITLE5=el condor pasa   love is the games
TTITLE6=5000 volts   light the flame of love
TTITLE7=mystic   dancing lady
TTITLE8=love unlimited orchestra   i wanna boogie and woogie with you
TTITLE9=eddy rosemond   funk it
TTITLE10=boule noire   discomania
TTITLE11=interlude
TTITLE12=dwight thompson   my woman is calling
TTITLE13=beverly and duane   surround time
TTITLE14=simon raid   love song
TTITLE15=gloria spring   baby come on
TTITLE16=santiago   mister love
TTITLE17=fat larry's band   dirty worlds
TTITLE18=bill brandon   you make so bright
TTITLE19=interlude
TTITLE20=carolyne bernier   hold me touch me
TTITLE21=hi tension   hi tension
TTITLE22=tom brock   naked as the day i was born
EXTD=
EXTT0=
EXTT1=
EXTT2=
EXTT3=
EXTT4=
EXTT5=
EXTT6=
EXTT7=
EXTT8=
EXTT9=
EXTT10=
EXTT11=
EXTT12=
EXTT13=
EXTT14=
EXTT15=
EXTT16=
EXTT17=
EXTT18=
EXTT19=
EXTT20=
EXTT21=
EXTT22=
PLAYORDER=
